# xmcd
#
# Track frame offsets: 
#        150
#        18524
#        39225
#        59341
#        87807
#        95040
#        121543
#        136341
#        167044
#        184353
#        201979
#        227871
#
# Disc length: 3360 seconds
#
# Revision: 0
# Processed by: cddbd v1.5.2PL0 Copyright (c) Steve Scherf et al.
# Submitted via: ExactAudioCopy v0.99pb5
#
DISCID=9e0d1e0c
DTITLE=The Hamsters - The Jimi Hendrix 40Th Anniversary Concerts 2010 
DTITLE=Disc 2
DYEAR=2011
DGENRE=Blues-Rock
TTITLE0=Stone Free
TTITLE1=Third Stone From The Sun
TTITLE2=Com On
TTITLE3=Little Wing
TTITLE4=If 6 Was 9
TTITLE5=Voodoo Chile (Slight Return)
TTITLE6=Star Spangled Banner
TTITLE7=Hey Joe
TTITLE8=Wild Thing
TTITLE9=Purple Haze
TTITLE10=All Along The Watchtower
TTITLE11=Angel
EXTD=
EXTT0=
EXTT1=
EXTT2=
EXTT3=
EXTT4=
EXTT5=
EXTT6=
EXTT7=
EXTT8=
EXTT9=
EXTT10=
EXTT11=
PLAYORDER=
